HIERARCHY
ROOT Hips
{
    OFFSET 0.0 0.0 0.0
    CHANNELS 6 Xposition Yposition Zposition Zrotation Xrotation Yrotation
    JOINT Spine
    {
        OFFSET 0.0 10.0 0.0
        CHANNELS 3 Zrotation Xrotation Yrotation
        JOINT Spine1
        {
            OFFSET 0.0 10.0 0.0
            CHANNELS 3 Zrotation Xrotation Yrotation
            JOINT Neck
            {
                OFFSET 0.0 10.0 0.0
                CHANNELS 3 Zrotation Xrotation Yrotation
                JOINT Head
                {
                    OFFSET 0.0 10.0 0.0
                    CHANNELS 3 Zrotation Xrotation Yrotation
                    End Site
                    {
                        OFFSET 0.0 10.0 0.0
                    }
                }
            }
            JOINT LeftArm
            {
                OFFSET -5.0 8.0 0.0
                CHANNELS 3 Zrotation Xrotation Yrotation
                JOINT LeftForeArm
                {
                    OFFSET -10.0 0.0 0.0
                    CHANNELS 3 Zrotation Xrotation Yrotation
                    JOINT LeftHand
                    {
                        OFFSET -10.0 0.0 0.0
                        CHANNELS 3 Zrotation Xrotation Yrotation
                        End Site
                        {
                            OFFSET -5.0 0.0 0.0
                        }
                    }
                }
            }
            JOINT RightArm
            {
                OFFSET 5.0 8.0 0.0
                CHANNELS 3 Zrotation Xrotation Yrotation
                JOINT RightForeArm
                {
                    OFFSET 10.0 0.0 0.0
                    CHANNELS 3 Zrotation Xrotation Yrotation
                    JOINT RightHand
                    {
                        OFFSET 10.0 0.0 0.0
                        CHANNELS 3 Zrotation Xrotation Yrotation
                        End Site
                        {
                            OFFSET 5.0 0.0 0.0
                        }
                    }
                }
            }
        }
    }
    JOINT LeftUpLeg
    {
        OFFSET -5.0 -5.0 0.0
        CHANNELS 3 Zrotation Xrotation Yrotation
        JOINT LeftLeg
        {
            OFFSET 0.0 -15.0 0.0
            CHANNELS 3 Zrotation Xrotation Yrotation
            JOINT LeftFoot
            {
                OFFSET 0.0 -15.0 0.0
                CHANNELS 3 Zrotation Xrotation Yrotation
                End Site
                {
                    OFFSET 0.0 -5.0 0.0
                }
            }
        }
    }
    JOINT RightUpLeg
    {
        OFFSET 5.0 -5.0 0.0
        CHANNELS 3 Zrotation Xrotation Yrotation
        JOINT RightLeg
        {
            OFFSET 0.0 -15.0 0.0
            CHANNELS 3 Zrotation Xrotation Yrotation
            JOINT RightFoot
            {
                OFFSET 0.0 -15.0 0.0
                CHANNELS 3 Zrotation Xrotation Yrotation
                End Site
                {
                    OFFSET 0.0 -5.0 0.0
                }
            }
        }
    }
}
MOTION
Frames: 24
Frame Time: 0.033333
0.000000 100.000000 0.000000 0.000000 0.000000 0.000000 0.000000 0.000000 0.000000 0.000000 0.000000 0.000000 0.000000 0.000000 0.000000 0.000000 0.000000 0.000000 0.000000 0.000000 0.000000 0.000000 0.000000 0.000000 0.000000 0.000000 0.000000 0.000000 0.000000 0.000000 0.000000 0.000000 0.000000 0.000000 0.000000 0.000000 0.000000 0.000000 0.000000 0.000000 0.000000 0.000000 0.000000 0.000000 0.000000 0.000000 0.000000 0.000000 0.000000 0.000000 0.000000 0.000000 0.000000 0.000000
0.338466 101.968212 0.822642 0.000000 0.000000 0.000000 0.000000 0.000000 0.000000 0.000000 0.000000 0.000000 0.000000 0.000000 0.000000 0.000000 0.000000 0.000000 12.338400 0.000000 0.000000 6.169200 0.000000 0.000000 0.000000 0.000000 0.000000 -12.338400 0.000000 0.000000 -6.169200 0.000000 0.000000 0.000000 0.000000 0.000000 9.841058 0.000000 0.000000 2.952317 0.000000 0.000000 0.000000 0.000000 0.000000 -9.841058 0.000000 0.000000 -2.952317 0.000000 0.000000 0.000000 0.000000 0.000000
0.665823 103.810397 1.639558 0.000000 0.000000 0.000000 0.000000 0.000000 0.000000 0.000000 0.000000 0.000000 0.000000 0.000000 0.000000 0.000000 0.000000 0.000000 23.349272 0.000000 0.000000 11.674636 0.000000 0.000000 0.000000 0.000000 0.000000 -23.349272 0.000000 0.000000 -11.674636 0.000000 0.000000 0.000000 0.000000 0.000000 19.051986 0.000000 0.000000 5.715596 0.000000 0.000000 0.000000 0.000000 0.000000 -19.051986 0.000000 0.000000 -5.715596 0.000000 0.000000 0.000000 0.000000 0.000000
0.971587 105.413937 2.445085 0.000000 0.000000 0.000000 0.000000 0.000000 0.000000 0.000000 0.000000 0.000000 0.000000 0.000000 0.000000 0.000000 0.000000 0.000000 31.899405 0.000000 0.000000 15.949703 0.000000 0.000000 0.000000 0.000000 0.000000 -31.899405 0.000000 0.000000 -15.949703 0.000000 0.000000 0.000000 0.000000 0.000000 27.069685 0.000000 0.000000 8.120906 0.000000 0.000000 0.000000 0.000000 0.000000 -27.069685 0.000000 0.000000 -8.120906 0.000000 0.000000 0.000000 0.000000 0.000000
1.246486 106.691326 3.233683 0.000000 0.000000 0.000000 0.000000 0.000000 0.000000 0.000000 0.000000 0.000000 0.000000 0.000000 0.000000 0.000000 0.000000 0.000000 37.212173 0.000000 0.000000 18.606087 0.000000 0.000000 0.000000 0.000000 0.000000 -37.212173 0.000000 0.000000 -18.606087 0.000000 0.000000 0.000000 0.000000 0.000000 33.456629 0.000000 0.000000 10.036989 0.000000 0.000000 0.000000 0.000000 0.000000 -33.456629 0.000000 0.000000 -10.036989 0.000000 0.000000 0.000000 0.000000 0.000000
1.482963 107.588706 4.000000 0.000000 0.000000 0.000000 0.000000 0.000000 0.000000 0.000000 0.000000 0.000000 0.000000 0.000000 0.000000 0.000000 0.000000 0.000000 38.971143 0.000000 0.000000 19.485572 0.000000 0.000000 0.000000 0.000000 0.000000 -38.971143 0.000000 0.000000 -19.485572 0.000000 0.000000 0.000000 0.000000 0.000000 37.943530 0.000000 0.000000 11.383059 0.000000 0.000000 0.000000 0.000000 0.000000 -37.943530 0.000000 0.000000 -11.383059 0.000000 0.000000 0.000000 0.000000 0.000000
1.675571 108.090170 4.738926 0.000000 0.000000 0.000000 0.000000 0.000000 0.000000 0.000000 0.000000 0.000000 0.000000 0.000000 0.000000 0.000000 0.000000 0.000000 37.348474 0.000000 0.000000 18.674237 0.000000 0.000000 0.000000 0.000000 0.000000 -37.348474 0.000000 0.000000 -18.674237 0.000000 0.000000 0.000000 0.000000 0.000000 40.450850 0.000000 0.000000 12.135255 0.000000 0.000000 0.000000 0.000000 0.000000 -40.450850 0.000000 0.000000 -12.135255 0.000000 0.000000 0.000000 0.000000 0.000000
1.821224 108.217330 5.445653 0.000000 0.000000 0.000000 0.000000 0.000000 0.000000 0.000000 0.000000 0.000000 0.000000 0.000000 0.000000 0.000000 0.000000 0.000000 32.954332 0.000000 0.000000 16.477166 0.000000 0.000000 0.000000 0.000000 0.000000 -32.954332 0.000000 0.000000 -16.477166 0.000000 0.000000 0.000000 0.000000 0.000000 41.086651 0.000000 0.000000 12.325995 0.000000 0.000000 0.000000 0.000000 0.000000 -41.086651 0.000000 0.000000 -12.325995 0.000000 0.000000 0.000000 0.000000 0.000000
1.919302 108.024276 6.115724 0.000000 0.000000 0.000000 0.000000 0.000000 0.000000 0.000000 0.000000 0.000000 0.000000 0.000000 0.000000 0.000000 0.000000 0.000000 26.716981 0.000000 0.000000 13.358491 0.000000 0.000000 0.000000 0.000000 0.000000 -26.716981 0.000000 0.000000 -13.358491 0.000000 0.000000 0.000000 0.000000 0.000000 40.121378 0.000000 0.000000 12.036413 0.000000 0.000000 0.000000 0.000000 0.000000 -40.121378 0.000000 0.000000 -12.036413 0.000000 0.000000 0.000000 0.000000 0.000000
1.971587 107.588638 6.745085 0.000000 0.000000 0.000000 0.000000 0.000000 0.000000 0.000000 0.000000 0.000000 0.000000 0.000000 0.000000 0.000000 0.000000 0.000000 19.714917 0.000000 0.000000 9.857458 0.000000 0.000000 0.000000 0.000000 0.000000 -19.714917 0.000000 0.000000 -9.857458 0.000000 0.000000 0.000000 0.000000 0.000000 37.943189 0.000000 0.000000 11.382957 0.000000 0.000000 0.000000 0.000000 0.000000 -37.943189 0.000000 0.000000 -11.382957 0.000000 0.000000 0.000000 0.000000 0.000000
1.982051 107.000000 7.330127 0.000000 0.000000 0.000000 0.000000 0.000000 0.000000 0.000000 0.000000 0.000000 0.000000 0.000000 0.000000 0.000000 0.000000 0.000000 12.990381 0.000000 0.000000 6.495191 0.000000 0.000000 0.000000 0.000000 0.000000 -12.990381 0.000000 0.000000 -6.495191 0.000000 0.000000 0.000000 0.000000 0.000000 35.000000 0.000000 0.000000 10.500000 0.000000 0.000000 0.000000 0.000000 0.000000 -35.000000 0.000000 0.000000 -10.500000 0.000000 0.000000 0.000000 0.000000 0.000000
1.956500 106.347215 7.867727 0.000000 0.000000 0.000000 0.000000 0.000000 0.000000 0.000000 0.000000 0.000000 0.000000 0.000000 0.000000 0.000000 0.000000 0.000000 7.376516 0.000000 0.000000 3.688258 0.000000 0.000000 0.000000 0.000000 0.000000 -7.376516 0.000000 0.000000 -3.688258 0.000000 0.000000 0.000000 0.000000 0.000000 31.736074 0.000000 0.000000 9.520822 0.000000 0.000000 0.000000 0.000000 0.000000 -31.736074 0.000000 0.000000 -9.520822 0.000000 0.000000 0.000000 0.000000 0.000000
1.902113 105.706339 8.355283 0.000000 0.000000 0.000000 0.000000 0.000000 0.000000 0.000000 0.000000 0.000000 0.000000 0.000000 0.000000 0.000000 0.000000 0.000000 3.367710 0.000000 0.000000 1.683855 0.000000 0.000000 0.000000 0.000000 0.000000 -3.367710 0.000000 0.000000 -1.683855 0.000000 0.000000 0.000000 0.000000 0.000000 28.531695 0.000000 0.000000 8.559509 0.000000 0.000000 0.000000 0.000000 0.000000 -28.531695 0.000000 0.000000 -8.559509 0.000000 0.000000 0.000000 0.000000 0.000000
1.826886 105.130793 8.790738 0.000000 0.000000 0.000000 0.000000 0.000000 0.000000 0.000000 0.000000 0.000000 0.000000 0.000000 0.000000 0.000000 0.000000 0.000000 1.054927 0.000000 0.000000 0.527463 0.000000 0.000000 0.000000 0.000000 0.000000 -1.054927 0.000000 0.000000 -0.527463 0.000000 0.000000 0.000000 0.000000 0.000000 25.653966 0.000000 0.000000 7.696190 0.000000 0.000000 0.000000 0.000000 0.000000 -25.653966 0.000000 0.000000 -7.696190 0.000000 0.000000 0.000000 0.000000 0.000000
1.739044 104.645045 9.172609 0.000000 0.000000 0.000000 0.000000 0.000000 0.000000 0.000000 0.000000 0.000000 0.000000 0.000000 0.000000 0.000000 0.000000 0.000000 0.136301 0.000000 0.000000 0.068151 0.000000 0.000000 0.000000 0.000000 0.000000 -0.136301 0.000000 0.000000 -0.068151 0.000000 0.000000 0.000000 0.000000 0.000000 23.225225 0.000000 0.000000 6.967568 0.000000 0.000000 0.000000 0.000000 0.000000 -23.225225 0.000000 0.000000 -6.967568 0.000000 0.000000 0.000000 0.000000 0.000000
1.646447 104.242641 9.500000 0.000000 0.000000 0.000000 0.000000 0.000000 0.000000 0.000000 0.000000 0.000000 0.000000 0.000000 0.000000 0.000000 0.000000 0.000000 0.000000 0.000000 0.000000 0.000000 0.000000 0.000000 0.000000 0.000000 0.000000 -0.000000 0.000000 0.000000 -0.000000 0.000000 0.000000 0.000000 0.000000 0.000000 21.213203 0.000000 0.000000 6.363961 0.000000 0.000000 0.000000 0.000000 0.000000 -21.213203 0.000000 0.000000 -6.363961 0.000000 0.000000 0.000000 0.000000 0.000000
1.556031 103.888809 9.772609 0.000000 0.000000 0.000000 0.000000 0.000000 0.000000 0.000000 0.000000 0.000000 0.000000 0.000000 0.000000 0.000000 0.000000 0.000000 -0.136301 0.000000 0.000000 -0.068151 0.000000 0.000000 0.000000 0.000000 0.000000 0.136301 0.000000 0.000000 0.068151 0.000000 0.000000 0.000000 0.000000 0.000000 19.444044 0.000000 0.000000 5.833213 0.000000 0.000000 0.000000 0.000000 0.000000 -19.444044 0.000000 0.000000 -5.833213 0.000000 0.000000 0.000000 0.000000 0.000000
1.473332 103.527252 9.990738 0.000000 0.000000 0.000000 0.000000 0.000000 0.000000 0.000000 0.000000 0.000000 0.000000 0.000000 0.000000 0.000000 0.000000 0.000000 -1.054927 0.000000 0.000000 -0.527463 0.000000 0.000000 0.000000 0.000000 0.000000 1.054927 0.000000 0.000000 0.527463 0.000000 0.000000 0.000000 0.000000 0.000000 17.636260 0.000000 0.000000 5.290878 0.000000 0.000000 0.000000 0.000000 0.000000 -17.636260 0.000000 0.000000 -5.290878 0.000000 0.000000 0.000000 0.000000 0.000000
1.402113 103.090170 10.155283 0.000000 0.000000 0.000000 0.000000 0.000000 0.000000 0.000000 0.000000 0.000000 0.000000 0.000000 0.000000 0.000000 0.000000 0.000000 -3.367710 0.000000 0.000000 -1.683855 0.000000 0.000000 0.000000 0.000000 0.000000 3.367710 0.000000 0.000000 1.683855 0.000000 0.000000 0.000000 0.000000 0.000000 15.450850 0.000000 0.000000 4.635255 0.000000 0.000000 0.000000 0.000000 0.000000 -15.450850 0.000000 0.000000 -4.635255 0.000000 0.000000 0.000000 0.000000 0.000000
1.344128 102.510117 10.267727 0.000000 0.000000 0.000000 0.000000 0.000000 0.000000 0.000000 0.000000 0.000000 0.000000 0.000000 0.000000 0.000000 0.000000 0.000000 -7.376516 0.000000 0.000000 -3.688258 0.000000 0.000000 0.000000 0.000000 0.000000 7.376516 0.000000 0.000000 3.688258 0.000000 0.000000 0.000000 0.000000 0.000000 12.550583 0.000000 0.000000 3.765175 0.000000 0.000000 0.000000 0.000000 0.000000 -12.550583 0.000000 0.000000 -3.765175 0.000000 0.000000 0.000000 0.000000 0.000000
1.299038 101.732051 10.330127 0.000000 0.000000 0.000000 0.000000 0.000000 0.000000 0.000000 0.000000 0.000000 0.000000 0.000000 0.000000 0.000000 0.000000 0.000000 -12.990381 0.000000 0.000000 -6.495191 0.000000 0.000000 0.000000 0.000000 0.000000 12.990381 0.000000 0.000000 6.495191 0.000000 0.000000 0.000000 0.000000 0.000000 8.660254 0.000000 0.000000 2.598076 0.000000 0.000000 0.000000 0.000000 0.000000 -8.660254 0.000000 0.000000 -2.598076 0.000000 0.000000 0.000000 0.000000 0.000000
1.264481 103.226852 10.345085 0.000000 0.000000 0.000000 0.000000 0.000000 0.000000 0.000000 0.000000 0.000000 0.000000 0.000000 0.000000 0.000000 0.000000 0.000000 -19.714917 0.000000 0.000000 -9.857458 0.000000 0.000000 0.000000 0.000000 0.000000 19.714917 0.000000 0.000000 9.857458 0.000000 0.000000 0.000000 0.000000 0.000000 3.619505 0.000000 0.000000 1.085851 0.000000 0.000000 0.000000 0.000000 0.000000 -3.619505 0.000000 0.000000 -1.085851 0.000000 0.000000 0.000000 0.000000 0.000000
1.236290 104.428431 10.315724 0.000000 0.000000 0.000000 0.000000 0.000000 0.000000 0.000000 0.000000 0.000000 0.000000 0.000000 0.000000 0.000000 0.000000 0.000000 -26.716981 0.000000 0.000000 -13.358491 0.000000 0.000000 0.000000 0.000000 0.000000 26.716981 0.000000 0.000000 13.358491 0.000000 0.000000 0.000000 0.000000 0.000000 -2.579204 0.000000 0.000000 -0.773761 0.000000 0.000000 0.000000 0.000000 0.000000 2.579204 0.000000 0.000000 0.773761 0.000000 0.000000 0.000000 0.000000 0.000000
1.208852 105.309265 10.245653 0.000000 0.000000 0.000000 0.000000 0.000000 0.000000 0.000000 0.000000 0.000000 0.000000 0.000000 0.000000 0.000000 0.000000 0.000000 -32.954332 0.000000 0.000000 -16.477166 0.000000 0.000000 0.000000 0.000000 0.000000 32.954332 0.000000 0.000000 16.477166 0.000000 0.000000 0.000000 0.000000 0.000000 -9.772914 0.000000 0.000000 -2.931874 0.000000 0.000000 0.000000 0.000000 0.000000 9.772914 0.000000 0.000000 2.931874 0.000000 0.000000 0.000000 0.000000 0.000000
